<svg width="64" height="64" viewBox="0 0 64 64" fill="none" xmlns="http://www.w3.org/2000/svg">
  <rect x="4" y="4" width="24" height="24" rx="6" fill="#1DA1F2"/>
  <rect x="36" y="4" width="24" height="24" rx="6" fill="#1DA1F2"/>
  <rect x="4" y="36" width="24" height="24" rx="6" fill="#1DA1F2"/>
  <rect x="36" y="36" width="24" height="24" rx="6" fill="#1DA1F2"/>
  <g>
    <path d="M15.5 16.5c2.5 0 4.5-2 4.5-4.5-.2 0-.4 0-.6.1.3-.2.6-.5.8-.8-.3.1-.7.2-1 .3.3-.2.6-.5.7-.9-.3.2-.7.3-1 .4-.6-.6-1.5-.9-2.4-.9-1.8 0-3.2 1.5-3.2 3.2 0 .3 0 .6.1.9-2.7-.1-5.1-1.4-6.7-3.4-.3.5-.5 1-.5 1.6 0 1.1.6 2.1 1.5 2.7-.6 0-1.1-.2-1.6-.4v.1c0 1.6 1.1 2.9 2.6 3.2-.3.1-.6.2-.9.2-.2 0-.4 0-.6-.1.4 1.2 1.6 2.1 3 2.1-1.1.9-2.5 1.4-4 1.4-.3 0-.6 0-.9-.1 1.4.9 3.1 1.5 4.9 1.5z" fill="#fff"/>
    <path d="M47.5 16.5c2.5 0 4.5-2 4.5-4.5-.2 0-.4 0-.6.1.3-.2.6-.5.8-.8-.3.1-.7.2-1 .3.3-.2.6-.5.7-.9-.3.2-.7.3-1 .4-.6-.6-1.5-.9-2.4-.9-1.8 0-3.2 1.5-3.2 3.2 0 .3 0 .6.1.9-2.7-.1-5.1-1.4-6.7-3.4-.3.5-.5 1-.5 1.6 0 1.1.6 2.1 1.5 2.7-.6 0-1.1-.2-1.6-.4v.1c0 1.6 1.1 2.9 2.6 3.2-.3.1-.6.2-.9.2-.2 0-.4 0-.6-.1.4 1.2 1.6 2.1 3 2.1-1.1.9-2.5 1.4-4 1.4-.3 0-.6 0-.9-.1 1.4.9 3.1 1.5 4.9 1.5z" fill="#fff"/>
    <path d="M15.5 48.5c2.5 0 4.5-2 4.5-4.5-.2 0-.4 0-.6.1.3-.2.6-.5.8-.8-.3.1-.7.2-1 .3.3-.2.6-.5.7-.9-.3.2-.7.3-1 .4-.6-.6-1.5-.9-2.4-.9-1.8 0-3.2 1.5-3.2 3.2 0 .3 0 .6.1.9-2.7-.1-5.1-1.4-6.7-3.4-.3.5-.5 1-.5 1.6 0 1.1.6 2.1 1.5 2.7-.6 0-1.1-.2-1.6-.4v.1c0 1.6 1.1 2.9 2.6 3.2-.3.1-.6.2-.9.2-.2 0-.4 0-.6-.1.4 1.2 1.6 2.1 3 2.1-1.1.9-2.5 1.4-4 1.4-.3 0-.6 0-.9-.1 1.4.9 3.1 1.5 4.9 1.5z" fill="#fff"/>
    <path d="M47.5 48.5c2.5 0 4.5-2 4.5-4.5-.2 0-.4 0-.6.1.3-.2.6-.5.8-.8-.3.1-.7.2-1 .3.3-.2.6-.5.7-.9-.3.2-.7.3-1 .4-.6-.6-1.5-.9-2.4-.9-1.8 0-3.2 1.5-3.2 3.2 0 .3 0 .6.1.9-2.7-.1-5.1-1.4-6.7-3.4-.3.5-.5 1-.5 1.6 0 1.1.6 2.1 1.5 2.7-.6 0-1.1-.2-1.6-.4v.1c0 1.6 1.1 2.9 2.6 3.2-.3.1-.6.2-.9.2-.2 0-.4 0-.6-.1.4 1.2 1.6 2.1 3 2.1-1.1.9-2.5 1.4-4 1.4-.3 0-.6 0-.9-.1 1.4.9 3.1 1.5 4.9 1.5z" fill="#fff"/>
  </g>
</svg> 